<svg xmlns="http://www.w3.org/2000/svg" width="430" height="430" fill="none" viewBox="0 0 430 430"><path fill="url(#HVQfhqHQOIa)" d="m383.5 199.6-58.6-54.4c0-.3.1-.6.1-.9V69.7c0-3.6-2.9-6.5-6.5-6.5h-47.1c-3.6 0-6.5 2.9-6.5 6.5v19.8l-44-40.8c-2.5-2.3-6.3-2.3-8.8 0l-165 150.8c-2.6 2.4-2.8 6.5-.4 9.1 1.3 1.4 3 2.1 4.8 2.1 1.6 0 3.1-.6 4.4-1.7L76 190.6v185.8c0 3.6 2.9 6.5 6.5 6.5h266.3c3.6 0 6.5-2.9 6.4-6.5V191l19.5 18.1c2.6 2.4 6.7 2.3 9.1-.3 2.5-2.7 2.4-6.8-.3-9.2m-105.7-99.3V76.2H312v57.1l-34.3-31.8c0-.4.1-.8.1-1.2M251.9 370h-70.7V244.7h70.7zm90.4 0h-77.5V238.3c0-3.6-2.9-6.5-6.5-6.5h-83.6c-3.6 0-6.5 2.9-6.5 6.5v131.8H89V180.2c0-.4 0-.8-.1-1.2L216.5 62.4l125.8 116.7z"/><defs><linearGradient id="HVQfhqHQOIa" x1="112.003" x2="355.9" y1="134.596" y2="378.494" gradientUnits="userSpaceOnUse"><stop stop-color="#ff8d69"/><stop offset="1" stop-color="#7eace7"/></linearGradient></defs></svg>