<svg width="40" height="40" viewBox="0 0 40 40" fill="none" xmlns="http://www.w3.org/2000/svg">
<g clip-path="url(#clip0_1540_756)">
<path d="M37.8652 13.7511C36.2458 11.5027 33.8205 10.0009 31.0364 9.52191C28.2523 9.04295 25.4428 9.64436 23.1258 11.2154L14.1079 17.3274L14.1066 17.3285C14.1036 17.3303 14.1012 17.3327 14.0984 17.3347L13.6911 16.7608C13.5075 16.5019 13.2431 16.5223 13.1038 16.806L11.0572 20.9766C10.9179 21.2606 11.0682 21.472 11.3913 21.4474L16.1377 21.0817C16.4608 21.057 16.5747 20.8249 16.3911 20.566L15.9831 19.9908C15.9929 19.9846 16.0033 19.979 16.0131 19.9726L25.031 13.8605C26.62 12.7832 28.5469 12.3708 30.4563 12.6991C32.3655 13.0277 34.0285 14.0577 35.1393 15.5992C37.4307 18.7804 36.629 23.1762 33.3528 25.4014C33.3511 25.4028 33.3492 25.4043 33.3472 25.4057C30.2514 27.5043 26.0404 26.9273 23.6486 24.1818L20.9173 26.0371C24.3671 30.2356 30.6534 31.1673 35.252 28.05C35.255 28.0482 35.2574 28.0465 35.2604 28.0447C40.0366 24.799 41.2063 18.3893 37.8652 13.7511Z" fill="#1E56A0"/>
<path d="M25.6631 21.8988L25.6647 21.8972L26.0753 22.4683C26.2607 22.7263 26.5251 22.7043 26.6626 22.4197L28.6829 18.2366C28.8204 17.9518 28.6683 17.7411 28.3459 17.7679L23.6013 18.1628C23.2786 18.1896 23.1661 18.4226 23.3513 18.6803L23.7625 19.2518C23.7606 19.2529 23.7588 19.2536 23.7572 19.255L14.7393 25.3666C13.1501 26.4436 11.2233 26.8565 9.31402 26.5277C7.40477 26.1994 5.74162 25.1692 4.63094 23.6274C2.33961 20.4464 3.14134 16.0506 6.41781 13.8251C6.41963 13.824 6.42332 13.8214 6.42332 13.8214C8.01263 12.7439 9.93922 12.3315 11.8485 12.6598C13.5352 12.95 15.0293 13.7885 16.1206 15.0433L18.8512 13.1882C17.2452 11.232 14.9897 9.92362 12.4291 9.48348C9.64491 9.00431 6.83561 9.60594 4.51821 11.177C4.51524 11.179 4.51295 11.1806 4.51019 11.1826C-0.266848 14.4274 -1.4363 20.8375 1.90467 25.4751C3.52416 27.7237 5.94925 29.2258 8.73296 29.7047C11.5169 30.1836 14.3266 29.5822 16.6438 28.0109L25.6617 21.8997L25.6631 21.8988Z" fill="#1E56A0"/>
</g>
<defs>
<clipPath id="clip0_1540_756">
<rect width="39.8854" height="21.2812" fill="white" transform="translate(0 9.32292)"/>
</clipPath>
</defs>
</svg>
