<svg width="70" height="70" viewBox="0 0 70 70" fill="none" xmlns="http://www.w3.org/2000/svg">
<g clip-path="url(#clip0_1540_540)">
<path d="M66.2666 24.2517C63.4327 20.2259 59.1881 17.5367 54.3159 16.6791C49.4434 15.8215 44.5266 16.8983 40.4718 19.7115L24.69 30.6553L24.6875 30.6573C24.6823 30.6605 24.6779 30.6649 24.6731 30.6684L23.9603 29.6409C23.639 29.1773 23.1764 29.2138 22.9327 29.7218L19.3509 37.1897C19.1072 37.6981 19.3701 38.0767 19.9356 38.0326L28.2421 37.3779C28.8076 37.3334 29.0069 36.9179 28.6855 36.4544L27.9715 35.4244C27.9888 35.4133 28.0068 35.4034 28.024 35.3918L43.8058 24.4476C46.5868 22.5186 49.9588 21.7802 53.3005 22.3681C56.6419 22.9564 59.5523 24.8007 61.4963 27.561C65.5064 33.2572 64.1034 41.1281 58.3696 45.1127C58.3668 45.115 58.3633 45.1178 58.3598 45.1202C52.942 48.8779 45.5723 47.8448 41.3866 42.9287L36.6067 46.2507C42.6441 53.7686 53.6455 55.4369 61.6934 49.8551C61.6987 49.8519 61.7027 49.8487 61.7079 49.8456C70.0667 44.0338 72.1137 32.5569 66.2666 24.2517Z" fill="#FBFDFE"/>
<path d="M44.912 38.8408L44.9148 38.838L45.6335 39.8605C45.9581 40.3225 46.4207 40.2831 46.6612 39.7735L50.197 32.2835C50.4375 31.7735 50.1714 31.3961 49.6071 31.4441L41.3038 32.1511C40.7391 32.1993 40.5422 32.6164 40.8663 33.0779L41.5859 34.1011C41.5827 34.1032 41.5795 34.1043 41.5768 34.1067L25.7948 45.0502C23.0135 46.9787 19.6414 47.718 16.3002 47.1293C12.9588 46.5414 10.0482 44.6967 8.10446 41.936C4.09447 36.2402 5.49757 28.3692 11.2316 24.3843C11.2348 24.3823 11.2384 24.3795 11.2413 24.3776C14.0226 22.4483 17.3943 21.7098 20.7356 22.2977C23.6874 22.8173 26.3023 24.3187 28.2121 26.5655L32.9908 23.2439C30.1802 19.7412 26.233 17.3984 21.7516 16.6103C16.8792 15.7523 11.9628 16.8295 7.90716 19.6427C7.90198 19.6462 7.89797 19.649 7.89313 19.6526C-0.466998 25.4627 -2.51362 36.9405 3.33329 45.2444C6.16751 49.2707 10.4116 51.9603 15.2833 52.8179C20.1553 53.6755 25.0725 52.5986 29.1277 49.785L44.9095 38.8424L44.912 38.8408Z" fill="#FBFDFE"/>
</g>
<defs>
<clipPath id="clip0_1540_540">
<rect width="69.8021" height="37.2396" fill="white" transform="translate(0 16.3228)"/>
</clipPath>
</defs>
</svg>
