<svg xmlns="http://www.w3.org/2000/svg" width="430" height="430" fill="none" viewBox="0 0 430 430"><path fill="url(#O0DXmm4rgla)" d="M147 75.5c-22.028 0-43.973 8.388-60.742 25.157-12.022 12.022-19.782 26.658-23.123 42.18a6 6 0 0 0 4.602 7.128 6 6 0 0 0 7.129-4.602c2.858-13.278 9.498-25.842 19.877-36.22C109.174 94.712 128.028 87.5 147 87.5c7.568 0 17.842 3.38 28.698 8.857a6 6 0 1 0 5.405-10.714C169.758 79.92 157.432 75.5 147 75.5"/><path fill="url(#mC7pJnlhUIb)" fill-rule="evenodd" d="M364.146 234.241c.368-.368.681-.776.937-1.214 18.902-19.506 30.545-46.112 30.545-75.427 0-59.868-48.532-108.4-108.4-108.4-27.873 0-53.298 10.527-72.5 27.811-19.201-17.284-44.626-27.811-72.5-27.811-59.867 0-108.4 48.532-108.4 108.4 0 31.856 13.75 60.509 35.618 80.333l141.311 141.31a6.004 6.004 0 0 0 8.487-.002zM45.828 157.6c0-53.24 43.16-96.4 96.4-96.4 26.666 0 50.794 10.82 68.252 28.322a6 6 0 0 0 8.496 0C236.435 72.019 260.562 61.2 287.228 61.2c53.241 0 96.4 43.16 96.4 96.4 0 26.594-10.76 50.663-28.18 68.11a6 6 0 0 0-.908 1.168L214.998 366.513 77.826 229.343a6 6 0 0 0-.22-.209c-19.523-17.649-31.778-43.156-31.778-71.534" clip-rule="evenodd"/><defs><linearGradient id="O0DXmm4rgla" x1="88.2289" x2="331.116" y1="121.691" y2="374.325" gradientUnits="userSpaceOnUse"><stop stop-color="#ff8d69"/><stop offset="1" stop-color="#7eace7"/></linearGradient><linearGradient id="mC7pJnlhUIb" x1="88.2289" x2="331.116" y1="121.691" y2="374.325" gradientUnits="userSpaceOnUse"><stop stop-color="#ff8d69"/><stop offset="1" stop-color="#7eace7"/></linearGradient></defs></svg>