<svg xmlns="http://www.w3.org/2000/svg" width="430" height="430" fill="none" viewBox="0 0 430 430"><path fill="url(#zDafIP8jTya)" d="M262.37 175.11c0-3.31 2.69-6 6-6h80.06c3.31 0 6 2.69 6 6s-2.69 6-6 6h-80.06c-3.31 0-6-2.69-6-6m-74.06 6h53.37c3.31 0 6-2.69 6-6s-2.69-6-6-6h-53.37c-3.31 0-6 2.69-6 6s2.69 6 6 6m0 40.03h160.12c3.31 0 6-2.69 6-6s-2.69-6-6-6H188.31c-3.31 0-6 2.69-6 6s2.69 6 6 6m0 39.99h160.12c3.31 0 6-2.69 6-6s-2.69-6-6-6H188.31c-3.31 0-6 2.69-6 6s2.69 6 6 6m219.49 33.83s.01.06.01.09 0 .06-.01.09v53.28c0 3.32-2.68 6-6 6H28.19c-3.31 0-6-2.68-6-6V81.57c0-3.32 2.69-6 6-6H401.8c3.32 0 6 2.68 6 6v53.28s.01.06.01.09 0 .06-.01.09v159.94zm-12-154.33c-27.96-2.82-50.25-25.12-53.07-53.07H87.27c-2.82 27.95-25.12 50.25-53.08 53.07v148.72c27.96 2.82 50.26 25.12 53.08 53.07h255.46c2.82-27.95 25.11-50.25 53.07-53.07zM100.93 221.3h14.79c3.55 0 6.88 1.38 9.39 3.9 2.51 2.51 3.88 5.85 3.87 9.4 0 3.58-1.42 6.95-3.98 9.48-2.47 2.44-5.67 3.78-9.03 3.74l-7.56-.07h-.19l-25.98-.23h-.05a6 6 0 0 0-.05 12l20.17.17v9.2c0 3.31 2.69 6 6 6s6-2.69 6-6v-9.1h1.57c.07.01.14.01.2.01 6.5 0 12.65-2.56 17.36-7.21 4.84-4.79 7.52-11.18 7.54-17.98.02-6.76-2.6-13.12-7.37-17.91s-11.13-7.42-17.89-7.42h-14.79c-3.56 0-6.9-1.39-9.42-3.9s-3.9-5.86-3.9-9.42c0-7.34 5.97-13.31 13.32-13.31h29.94c3.31 0 6-2.69 6-6s-2.69-6-6-6h-16.56v-9.57c0-3.31-2.69-6-6-6s-6 2.69-6 6v9.57h-1.38c-13.96 0-25.31 11.35-25.32 25.31 0 6.76 2.63 13.12 7.41 17.9s11.14 7.42 17.9 7.42z"/><defs><linearGradient id="zDafIP8jTya" x1="50.6399" x2="379.36" y1="50.6403" y2="379.36" gradientUnits="userSpaceOnUse"><stop stop-color="#ff8d69"/><stop offset="1" stop-color="#7eace7"/></linearGradient></defs></svg>