<svg xmlns="http://www.w3.org/2000/svg" width="430" height="430" fill="none" viewBox="0 0 430 430"><path fill="url(#bZvPVsOA02a)" fill-rule="evenodd" d="M29 85a6 6 0 0 1 6-6h235a6 6 0 0 1 6 6v54h57.469a26 26 0 0 1 22.501 12.973l14.434 24.931q.056.093.109.189l31.988 55.252A26 26 0 0 1 406 245.372V315a6 6 0 0 1-6 6h-24.465c-2.881 18.413-18.813 32.5-38.035 32.5s-35.154-14.087-38.035-32.5h-153.93c-2.881 18.413-18.813 32.5-38.035 32.5S72.346 339.413 69.465 321H35a6 6 0 0 1-6-6zm360.593 149-27.789-48H321v48zm-34.737-60H315a6 6 0 0 0-6 6v60a6 6 0 0 0 6 6h79v63h-18.465c-2.881-18.413-18.813-32.5-38.035-32.5s-35.154 14.087-38.035 32.5H276V151h57.469a14 14 0 0 1 12.116 6.985zM264 309H145.535c-2.881-18.413-18.813-32.5-38.035-32.5S72.346 290.587 69.465 309H41V91h223zm-156.5-20.5C92.865 288.5 81 300.364 81 315s11.865 26.5 26.5 26.5S134 329.636 134 315s-11.864-26.5-26.5-26.5M311 315c0 14.636 11.864 26.5 26.5 26.5S364 329.636 364 315s-11.864-26.5-26.5-26.5S311 300.364 311 315" clip-rule="evenodd"/><defs><linearGradient id="bZvPVsOA02a" x1="152.326" x2="286.847" y1="139.96" y2="348.06" gradientUnits="userSpaceOnUse"><stop stop-color="#ff8d69"/><stop offset="1" stop-color="#7eace7"/></linearGradient></defs></svg>